HIERARCHY
ROOT Hips
{
	OFFSET 0.00000 0.00000 0.00000
	CHANNELS 6 Xposition Yposition Zposition Zrotation Yrotation Xrotation 
	JOINT LHipJoint
	{
		OFFSET 0 0 0
		CHANNELS 3 Zrotation Yrotation Xrotation
		JOINT LeftHip
		{
			OFFSET 1.62964 -1.40469 0.78906
			CHANNELS 3 Zrotation Yrotation Xrotation
			JOINT LeftKnee
			{
				OFFSET 2.29640 -6.30932 0.00000
				CHANNELS 3 Zrotation Yrotation Xrotation
				JOINT LeftAnkle
				{
					OFFSET 2.29451 -6.30412 0.00000
					CHANNELS 3 Zrotation Yrotation Xrotation
					JOINT LeftToe
					{
						OFFSET 0.03611 -0.09921 1.56387
						CHANNELS 3 Zrotation Yrotation Xrotation
						End Site
						{
							OFFSET 0.00000 -0.00000 0.80291
						}
					}
				}
			}
		}
	}
	JOINT RHipJoint
	{
		OFFSET 0 0 0
		CHANNELS 3 Zrotation Yrotation Xrotation
		JOINT RightHip
		{
			OFFSET -1.73712 -1.40469 0.78906
			CHANNELS 3 Zrotation Yrotation Xrotation
			JOINT RightKnee
			{
				OFFSET -2.28137 -6.26801 0.00000
				CHANNELS 3 Zrotation Yrotation Xrotation
				JOINT RightAnkle
				{
					OFFSET -2.28681 -6.28298 0.00000
					CHANNELS 3 Zrotation Yrotation Xrotation
					JOINT RightToe
					{
						OFFSET -0.15927 -0.43759 1.61103
						CHANNELS 3 Zrotation Yrotation Xrotation
						End Site
						{
							OFFSET -0.00000 -0.00000 0.84630
						}
					}
				}
			}
		}
	}
	JOINT lowerback
	{
		OFFSET 0 0 0
		CHANNELS 3 Zrotation Yrotation Xrotation
		JOINT Chest
		{
			OFFSET -0.04227 2.04338 -0.00225
			CHANNELS 3 Zrotation Yrotation Xrotation
			JOINT Chest2
			{
				OFFSET -0.02148 2.04482 -0.04273
				CHANNELS 3 Zrotation Yrotation Xrotation
				JOINT lowerneck
				{
					OFFSET 0 0 0
					CHANNELS 3 Zrotation Yrotation Xrotation
					JOINT Neck
					{
						OFFSET 0.09180 1.44629 0.19359
						CHANNELS 3 Zrotation Yrotation Xrotation
						JOINT Head
						{
							OFFSET 0.00887 1.40645 0.14750
							CHANNELS 3 Zrotation Yrotation Xrotation
							End Site
							{
								OFFSET -0.00669 1.50671 0.03707
							}
						}
					}
				}
				JOINT LeftCollar
				{
					OFFSET 0 0 0
					CHANNELS 3 Zrotation Yrotation Xrotation
					JOINT LeftShoulder
					{
						OFFSET 2.17674 1.86763 -0.06520
CHANNELS 3 Zrotation Xrotation Yrotation
						JOINT LeftElbow
						{
OFFSET 0 -4.657760 0.000000
CHANNELS 3 Zrotation Xrotation Yrotation
							JOINT LeftWrist
							{
OFFSET 0 -3.555390 0.000000
CHANNELS 3 Zrotation Xrotation Yrotation
								JOINT lhand
								{
									OFFSET 0 0 0
CHANNELS 3 Zrotation Xrotation Yrotation
									JOINT LFingers
									{
OFFSET 0 -0.707260 0.000000
CHANNELS 3 Zrotation Xrotation Yrotation
										End Site
										{
OFFSET 0 -0.570220 0.000000
										}
									}
								}
								JOINT LThumb
								{
OFFSET 0 0.000000 0.000000
CHANNELS 3 Zrotation Xrotation Yrotation
									End Site
									{
OFFSET 0 -0.578920 0.578920
									}
								}
							}
						}
					}
				}
				JOINT RightCollar
				{
					OFFSET 0 0 0
					CHANNELS 3 Zrotation Yrotation Xrotation
					JOINT RightShoulder
					{
						OFFSET -2.80694 1.55459 -0.32496
CHANNELS 3 Zrotation Xrotation Yrotation
						JOINT RightElbow
						{
OFFSET 0 -4.719250 -0.000000
CHANNELS 3 Zrotation Xrotation Yrotation
							JOINT RightWrist
							{
OFFSET 0 -3.569900 0.000000
CHANNELS 3 Zrotation Xrotation Yrotation
								JOINT rhand
								{
									OFFSET 0 0 0
CHANNELS 3 Zrotation Xrotation Yrotation
									JOINT RFingers
									{
OFFSET 0 -0.507760 0.000000
CHANNELS 3 Zrotation Xrotation Yrotation
										End Site
										{
OFFSET 0 -0.409370 0.000000
										}
									}
								}
								JOINT RThumb
								{
OFFSET 0 0.000000 0.000000
CHANNELS 3 Zrotation Xrotation Yrotation
									End Site
									{
OFFSET 0 -0.415620 0.415620
									}
								}
							}
						}
					}
				}
			}
		}
	}
}
MOTION
Frames: 9
Frame Time: .0083333
9.7402 22.6653 16.9548 177.1550 2.6006 -146.7140 0.0000 0.0000 0.0000 -19.4361 -4.2582 -27.2153 8.5450 16.5058 54.5029 2.4219 19.9963 29.4105 6.6469 -15.0272 -47.5260 0.0000 0.0000 0.0000 18.8740 4.1717 -26.7487 -11.2423 -18.0516 63.5659 -0.1841 -17.2937 13.8538 -1.5920 7.9588 -22.5889 -4.8771 -3.8625 -33.4318 -0.1755 -1.5653 -4.6997 1.9411 -0.2058 12.0470 -2.1386 -5.5918 3.7239 3.8103 -7.4657 3.6050 1.5584 -3.6880 0.7318 -0.0000 0.0000 0.0000 15.5673 -6.2462 -47.4013 26.1957 -37.4013 9.0063 30.3131 1.5702 13.5714 0.0 0.0 0.0 -7.1250 0.0 0.0 1.9856 14.3639 1.4318 -0.0000 0.0000 0.0000 -3.5801 -5.7268 8.2014 -9.2567 -15.5686 -1.2681 -16.4683 48.9713 56.3503 0.0 0.0 0.0 7.1250 0.0 -0.0 80.5620 77.9655 -68.2214
9.7516 22.8231 16.7033 177.1960 2.4880 -146.8440 0.0000 0.0000 0.0000 -19.1809 -4.6716 -27.5575 8.5395 16.5021 54.4834 2.3951 19.6892 29.1929 6.9888 -15.3225 -48.8320 0.0000 0.0000 0.0000 18.9425 4.2826 -27.9294 -11.6548 -18.2409 64.8905 0.0279 -18.1061 12.4739 -1.2865 7.1873 -20.2715 -5.0059 -3.8412 -33.1353 -0.0315 -1.5671 -4.6481 2.1659 -0.2295 11.9947 -2.3250 -5.6163 2.6502 4.1456 -7.4974 5.6105 1.6385 -3.6477 1.5719 -0.0000 -0.0000 0.0000 14.0612 -5.7432 -46.1724 23.8052 -34.9575 7.5946 28.5828 1.0583 14.168 0.0 0.0 0.0 -7.1250 0.0 0.0 0.7546 13.9418 0.5506 -0.0000 -0.0000 0.0000 -3.3348 -4.8886 2.4713 -7.8741 -13.3486 -0.9229 -12.5915 49.8226 57.0768 0.0 0.0 0.0 7.1250 0.0 -0.0 83.3326 76.5576 -69.4188
9.7682 22.9542 16.4602 177.2570 2.3559 -146.8210 0.0000 0.0000 0.0000 -18.8108 -5.0246 -28.2900 8.6359 16.5676 54.8222 2.3399 19.6916 28.9049 7.0053 -15.3364 -48.8945 0.0000 0.0000 0.0000 19.0831 4.5854 -29.3291 -12.1153 -18.4390 66.3538 0.1873 -18.5023 11.2602 -1.0901 6.6353 -18.6394 -4.0460 -3.4944 -35.5326 -0.8159 -1.4422 -2.7386 0.7844 -0.3028 15.1028 -2.2642 -5.2049 1.5241 5.8236 -7.0138 5.2296 2.1518 -3.3760 1.7008 -0.0000 0.0000 0.0000 14.3387 -7.8585 -44.2687 21.5110 -32.4199 6.3216 27.8282 0.0363 14.2755 0.0 0.0 0.0 -7.1250 0.0 0.0 0.2344 13.9285 0.1711 -0.0000 0.0000 0.0000 -1.6227 -7.0215 -6.191 -6.5364 -11.1537 -0.6389 -13.4766 57.8446 54.8575 0.0 0.0 0.0 7.1250 0.0 -0.0 73.8569 76.7158 -60.3577
9.7676 23.0558 16.1941 177.3930 2.1112 -146.9510 0.0000 0.0000 0.0000 -18.4636 -5.4319 -28.6631 8.6758 16.5945 54.9622 2.2685 20.1051 28.6403 6.8075 -15.1676 -48.1424 0.0000 0.0000 0.0000 19.1659 4.4841 -30.3886 -12.4644 -18.5801 67.4533 0.2434 -18.6057 10.7920 -0.9868 6.3228 -17.7240 -4.7242 -3.6905 -32.5438 0.1616 -1.5702 -4.7161 2.2296 -0.2300 11.6811 -3.4719 -7.0629 3.9339 5.7866 -9.3609 10.1282 2.3428 -4.3831 3.0908 0.0000 0.0000 0.0000 11.3554 -4.3714 -43.9076 19.6688 -30.2413 5.3636 27.8508 -0.0844 14.1565 0.0 0.0 0.0 -7.1250 0.0 0.0 0.2607 14.0578 0.1896 0.0000 0.0000 0.0000 -2.9233 -2.2977 -10.9369 -6.1343 -10.486 -0.5634 -8.5904 56.2029 54.4587 0.0 0.0 0.0 7.1250 0.0 -0.0 73.5306 74.8124 -57.9247
9.7711 23.1437 15.9362 177.3950 1.8837 -147.3250 0.0000 0.0000 0.0000 -18.2352 -5.6316 -28.8451 8.7262 16.6282 55.1382 2.2428 20.2017 28.5317 6.6493 -15.0293 -47.5352 0.0000 0.0000 0.0000 19.1500 4.2826 -31.2083 -12.7696 -18.6974 68.4083 0.3055 -18.7075 10.2518 -0.9462 6.1950 -17.3512 -4.4971 -3.5321 -32.3064 0.0694 -1.5484 -4.3288 2.0141 -0.2702 12.0106 -3.8075 -5.7347 2.7804 6.1444 -7.7062 7.8467 2.5388 -3.6647 2.4651 -0.0000 0.0000 0.0000 10.3573 -4.1608 -42.4801 17.9285 -28.0656 4.5156 27.6182 -0.7341 14.1415 0.0 0.0 0.0 -7.1250 0.0 0.0 0.1045 14.1065 0.0759 -0.0000 0.0000 0.0000 -2.4787 -1.4146 -17.4772 -5.5851 -9.5684 -0.4678 -6.3188 58.9954 54.5388 0.0 0.0 0.0 7.1250 0.0 -0.0 74.5944 73.9961 -57.9999
9.7915 23.2215 15.7245 176.9520 1.3816 -147.4240 0.0000 0.0000 0.0000 -18.1708 -6.3070 -29.8313 9.0241 16.8232 56.1734 2.2114 19.7699 28.2464 6.6053 -14.9903 -47.3654 0.0000 0.0000 0.0000 18.8636 4.1475 -32.7929 -13.1841 -18.8476 69.6962 0.4324 -18.6254 8.8178 -1.1079 6.6876 -18.7932 -4.8980 -3.7382 -31.7445 -0.0253 -1.7755 -4.0674 2.0406 -0.4307 12.0926 -4.2395 -5.8068 3.0812 7.2236 -7.8452 7.9507 2.9896 -3.7112 2.5366 0.0000 0.0000 0.0000 9.4715 -4.0173 -40.6886 16.4635 -26.145 3.8479 26.708 -1.2275 14.0984 0.0 0.0 0.0 -7.1250 0.0 0.0 -0.5088 14.2769 -0.3677 0.0000 0.0000 0.0000 -1.9973 -0.6412 -23.7634 -5.1684 -8.8683 -0.4011 -5.0296 62.6972 55.0704 0.0 0.0 0.0 7.1250 0.0 -0.0 76.8493 73.6344 -59.7362
9.7831 23.2704 15.4536 177.1680 1.7652 -148.1750 0.0000 0.0000 0.0000 -18.2326 -5.6930 -29.7139 9.1013 16.8725 56.4398 2.1358 19.4131 27.7435 6.6027 -14.9880 -47.3550 0.0000 0.0000 0.0000 18.6121 4.6721 -33.2352 -13.4958 -18.9539 70.6586 0.1435 -20.2743 13.0686 -0.0114 0.6886 -1.8924 -4.4594 -3.2426 -31.5322 -0.2054 -1.4456 -3.3237 1.7288 -0.3651 12.8090 -4.8452 -6.0662 3.4237 8.6572 -8.2510 8.1857 3.6017 -3.8793 2.7005 0.0000 0.0000 0.0000 8.7035 -3.8351 -39.4125 15.2613 -24.5089 3.3336 27.623 -1.1769 13.1513 0.0 0.0 0.0 -7.1250 0.0 0.0 0.1942 15.2067 0.1364 0.0000 0.0000 0.0000 -1.5992 0.0032 -23.9922 -4.8659 -8.3581 -0.3558 -5.68 62.301 55.8541 0.0 0.0 0.0 7.1250 0.0 -0.0 79.3435 73.9919 -62.571
9.7955 23.3179 15.2327 177.0900 1.5633 -148.4230 0.0000 0.0000 0.0000 -18.0297 -5.8004 -30.5610 9.3788 17.0454 57.3910 2.1118 18.6785 27.4171 6.5727 -14.9612 -47.2389 0.0000 0.0000 0.0000 18.4879 4.9451 -34.5845 -13.7991 -19.0520 71.5899 0.1228 -18.7566 12.0782 -0.2490 3.2106 -8.8656 -4.3947 -3.1426 -31.0496 -0.3716 -1.4467 -2.8886 1.5118 -0.4194 13.0916 -5.3488 -5.0023 2.7191 9.3917 -6.8606 5.8453 3.9752 -3.2740 1.9883 -0.0000 -0.0000 0.0000 8.137 -3.4761 -37.6523 14.4122 -23.3209 2.9893 27.3286 -1.5914 13.0663 0.0 0.0 0.0 -7.1250 0.0 0.0 -0.0003 15.3388 -0.0002 -0.0000 -0.0000 0.0000 -1.0688 0.9277 -24.2138 -4.6712 -8.0289 -0.328 -7.2548 62.8605 55.9056 0.0 0.0 0.0 7.1250 0.0 -0.0 79.1570 74.5636 -63.0475
9.8123 23.3584 15.0195 176.8320 1.4563 -148.8430 0.0000 0.0000 0.0000 -18.0472 -6.0032 -31.3087 9.7272 17.2536 58.5728 1.9684 18.0895 26.4633 6.6292 -15.0115 -47.4574 0.0000 0.0000 0.0000 18.1146 5.2426 -35.9007 -14.1089 -19.1467 72.5368 0.0945 -17.4520 11.3465 -0.5054 4.5571 -12.6495 -4.6769 -3.1909 -30.1032 -0.4150 -1.5751 -2.5233 1.5726 -0.5489 13.1068 -5.6793 -4.9638 2.9535 10.0578 -6.8197 5.2970 4.2871 -3.2692 1.8072 -0.0000 -0.0000 0.0000 7.3336 -2.8277 -35.5863 13.7088 -22.3169 2.7166 27.9408 -1.0855 12.8465 0.0 0.0 0.0 -7.1250 0.0 0.0 0.4379 15.5057 0.3049 -0.0000 -0.0000 0.0000 -0.8371 2.0854 -24.236 -4.5818 -7.8775 -0.3156 -8.1269 63.0246 55.9814 0.0 0.0 0.0 7.1250 0.0 -0.0 79.2600 74.887 -63.5179
